<svg width="24" height="24" viewBox="0 0 24 24" fill="none" xmlns="http://www.w3.org/2000/svg">
<path d="M22 7.81V12.5H17.92C17.8 12.49 17.54 12.34 17.48 12.23L16.44 10.26C16.03 9.48 15.32 9.04 14.56 9.08C13.8 9.12 13.15 9.63 12.82 10.46L11.44 13.92L11.24 13.4C10.75 12.13 9.35 11.17 7.97 11.17L2 11.2V7.81C2 4.17 4.17 2 7.81 2H16.19C19.83 2 22 4.17 22 7.81Z" fill="#292D32"/>
<path d="M22 16.1899V13.9999H17.92C17.25 13.9999 16.46 13.5199 16.15 12.9299L15.11 10.9599C14.83 10.4299 14.43 10.4599 14.21 11.0099L11.91 16.8199C11.66 17.4699 11.24 17.4699 10.98 16.8199L9.84 13.9399C9.57 13.2399 8.73 12.6699 7.98 12.6699L2 12.6999V16.1899C2 19.7699 4.1 21.9299 7.63 21.9899C7.74 21.9999 7.86 21.9999 7.97 21.9999H15.97C16.12 21.9999 16.27 21.9999 16.41 21.9899C19.92 21.9099 22 19.7599 22 16.1899Z" fill="#292D32"/>
<path d="M1.99997 12.7V16.01C1.97997 15.69 1.96997 15.35 1.96997 15V12.7H1.99997Z" fill="#292D32"/>
</svg>
