<svg width="228" height="444" viewBox="0 0 228 444" fill="none" xmlns="http://www.w3.org/2000/svg">
<path fill-rule="evenodd" clip-rule="evenodd" d="M-186.846 253.374C-169.843 237.094 -146.655 217.005 -120.761 211.074C-112.655 209.218 -104.283 208.748 -95.7531 210.216C-89.6322 208.968 -83.365 208.525 -76.9974 209.121C-76.3879 208.965 -75.7769 208.817 -75.1643 208.677C-70.5506 207.62 -65.8505 207.013 -61.084 206.956C-58.8266 206.217 -56.5454 205.578 -54.2428 205.051C-53.5252 204.886 -52.8055 204.733 -52.0838 204.591C-35.9021 189.76 -15.3197 173.735 7.33399 168.547C20.2903 165.579 33.9278 166.155 47.8032 172.524C61.6759 178.893 75.7644 191.043 89.6408 211.186C121.962 258.104 122.651 301.062 123.182 334.115C123.231 337.184 123.279 340.167 123.35 343.061C123.773 360.11 125.025 373.949 132.154 383.749C139.27 393.529 152.304 399.363 176.501 400.198L176.502 400.787C152.255 399.95 138.999 394.103 131.722 384.101C124.46 374.12 123.22 360.078 122.798 343.057C122.726 340.161 122.678 337.177 122.629 334.109C122.097 301.063 121.409 258.281 89.199 211.525C75.3668 191.446 61.3544 179.379 47.5989 173.065C33.846 166.751 20.3282 166.177 7.4671 169.123C-14.7214 174.205 -34.944 189.76 -50.9952 204.385C-50.4725 204.29 -49.9489 204.202 -49.4242 204.119C-48.5687 203.752 -47.7092 203.398 -46.8459 203.057C-34.048 193.237 -19.5417 184.638 -4.06919 181.094C8.88706 178.126 22.5247 178.702 36.4 185.072C50.2728 191.44 64.3613 203.59 78.2377 223.733C110.559 270.651 111.248 313.609 111.778 346.662L111.779 346.664C111.828 349.732 111.876 352.715 111.947 355.608C112.37 372.657 113.621 386.496 120.751 396.296C127.866 406.076 140.901 411.91 165.098 412.745L165.099 413.334C140.852 412.497 127.595 406.65 120.319 396.648C113.057 386.667 111.816 372.625 111.395 355.604C111.323 352.712 111.275 349.731 111.226 346.667L111.225 346.657C110.694 313.61 110.006 270.828 77.7958 224.072C63.9637 203.993 49.9512 191.926 36.1957 185.612C22.4428 179.298 8.92504 178.724 -3.93608 181.67C-18.6733 185.046 -32.5433 193.041 -44.8999 202.315C-44.7216 202.25 -44.5432 202.185 -44.3646 202.12C-36.0977 197.331 -27.3478 193.509 -18.2648 191.428C-5.30856 188.461 8.32905 189.036 22.2044 195.406C36.0771 201.775 50.1656 213.925 64.042 234.068C96.3631 280.986 97.0524 323.944 97.5828 356.997C97.6321 360.066 97.68 363.049 97.7517 365.943C98.1742 382.992 99.4257 396.831 106.556 406.631C113.671 416.411 126.705 422.245 150.903 423.08L150.903 423.669C126.657 422.832 113.4 416.984 106.123 406.983C98.8613 397.001 97.6208 382.96 97.199 365.939C97.1272 363.043 97.0792 360.059 97.0299 356.991C96.4982 323.945 95.8099 281.162 63.6002 234.407C49.768 214.328 35.7556 202.261 22.0001 195.946C8.24723 189.633 -5.27058 189.059 -18.1317 192.005C-26.1578 193.843 -33.9267 197.052 -41.3339 201.091C-39.2811 200.437 -37.2088 199.866 -35.1189 199.388C-22.1627 196.42 -8.52504 196.996 5.35032 203.366C19.2231 209.734 33.3116 221.884 47.1879 242.027C79.509 288.945 80.1983 331.903 80.7287 364.956C80.778 368.025 80.8259 371.009 80.8976 373.902C81.3201 390.951 82.5716 404.79 89.7016 414.59C96.8166 424.37 109.851 430.204 134.048 431.039L134.049 431.628C109.803 430.791 96.5458 424.944 89.269 414.942C82.0072 404.961 80.7667 390.919 80.3449 373.898C80.2731 371.003 80.2251 368.019 80.1758 364.951C79.6441 331.904 78.9558 289.122 46.7461 242.366C32.9139 222.287 18.9015 210.22 5.14598 203.906C-8.60687 197.592 -22.1247 197.018 -34.9858 199.964C-38.0737 200.672 -41.1234 201.582 -44.1292 202.664C-44.6891 202.988 -45.2469 203.318 -45.8024 203.651C-35.4159 202.598 -24.668 204.027 -13.7736 209.028C0.0991228 215.397 14.1876 227.547 28.064 247.69C60.3851 294.608 61.0744 337.566 61.6048 370.619C61.6541 373.688 61.7019 376.672 61.7736 379.565C62.1961 396.614 63.4477 410.453 70.5777 420.253C77.6927 430.033 90.7274 435.867 114.924 436.702L114.925 437.291C90.6786 436.454 77.4218 430.607 70.145 420.605C62.8832 410.624 61.6428 396.582 61.2209 379.561C61.1499 376.695 61.1023 373.742 61.0533 370.707L61.0529 370.682L61.0528 370.671L61.0526 370.664L61.0523 370.644L61.0522 370.638L61.0519 370.619L61.0518 370.613C60.5202 337.567 59.8319 294.785 27.6222 248.029C13.79 227.95 -0.222482 215.883 -13.978 209.569C-25.2195 204.408 -36.304 203.082 -47.0013 204.379C-48.0022 204.994 -48.9957 205.622 -49.9814 206.263C-50.5292 206.702 -51.0736 207.144 -51.6146 207.586C-46.0351 208.405 -40.3851 210.043 -34.6951 212.655C-20.8224 219.023 -6.73386 231.173 7.14255 251.317C39.4636 298.234 40.1529 341.192 40.6833 374.245L40.6834 374.247C40.7326 377.315 40.7805 380.298 40.8522 383.191C41.2746 400.24 42.5262 414.08 49.6562 423.88C56.7712 433.659 69.806 439.493 94.003 440.328L94.0034 440.917C69.7572 440.08 56.5004 434.233 49.2236 424.231C41.9618 414.25 40.7213 400.208 40.2995 383.187C40.2279 380.298 40.1799 377.321 40.1307 374.26L40.1307 374.26L40.1304 374.241L40.1304 374.24C39.5987 341.193 38.9104 298.411 6.70074 251.655C-7.13145 231.576 -21.144 219.51 -34.8994 213.195C-40.729 210.519 -46.5164 208.874 -52.2294 208.091C-54.497 209.96 -56.7031 211.852 -58.8429 213.741C-58.2233 214.003 -57.6031 214.277 -56.9824 214.562C-43.1097 220.93 -29.0212 233.08 -15.1448 253.223C17.1763 300.141 17.8656 343.099 18.396 376.152C18.4452 379.221 18.4931 382.205 18.5648 385.098C18.9873 402.147 20.2389 415.986 27.3689 425.786C34.4839 435.566 47.5186 441.4 71.7157 442.235L71.716 442.824C47.4698 441.987 34.213 436.14 26.9362 426.138C19.6744 416.157 18.4339 402.115 18.0121 385.094C17.9404 382.199 17.8924 379.215 17.843 376.147C17.3114 343.1 16.6231 300.318 -15.5866 253.562C-29.4188 233.483 -43.4313 221.416 -57.1868 215.102C-57.8994 214.775 -58.6115 214.463 -59.3228 214.166C-62.3743 216.873 -65.289 219.573 -68.053 222.194C-58.1814 229.227 -48.2646 239.473 -38.4539 253.714C-6.13279 300.631 -5.44347 343.59 -4.91308 376.642C-4.86383 379.712 -4.81595 382.695 -4.74424 385.589C-4.32174 402.638 -3.07019 416.477 4.0598 426.277C11.1748 436.056 24.2095 441.89 48.4066 442.726L48.407 443.315C24.1608 442.478 10.904 436.63 3.62718 426.629C-3.63465 416.647 -4.87515 402.606 -5.29693 385.585C-5.36868 382.689 -5.4167 379.705 -5.46606 376.637C-5.99771 343.59 -6.686 300.808 -38.8957 254.053C-48.7161 239.797 -58.6274 229.58 -68.4731 222.593C-68.9117 223.01 -69.3465 223.425 -69.7773 223.838L-70.1542 223.393C-69.7588 223.015 -69.3601 222.634 -68.9581 222.252C-69.328 221.993 -69.6978 221.739 -70.0675 221.49C-75.0501 225.763 -79.7034 230.085 -83.9729 234.172L-84.3498 233.728C-80.1215 229.68 -75.5107 225.396 -70.571 221.152C-71.6732 220.42 -72.7744 219.728 -73.8745 219.075C-83.9208 226.393 -93.0162 234.653 -100.827 242.132L-101.204 241.687C-93.453 234.266 -84.4167 226.053 -74.4248 218.751C-76.1589 217.741 -77.89 216.826 -79.6172 216.003C-95.0324 224.849 -108.801 237.119 -119.951 247.795L-120.328 247.35C-109.271 236.764 -95.5978 224.566 -80.2661 215.698L-80.3491 215.66L-80.4958 215.592C-82.6676 214.595 -84.8336 213.741 -86.992 213.022C-107.901 221.358 -126.547 237.705 -140.872 251.421L-141.249 250.976C-127.079 237.409 -108.614 221.197 -87.8664 212.738C-90.4992 211.903 -93.1204 211.268 -95.7271 210.815C-96.2587 210.924 -96.7892 211.039 -97.3185 211.16C-123.059 217.056 -146.154 237.045 -163.16 253.328L-163.537 252.883C-146.534 236.604 -123.346 216.515 -97.4517 210.584L-97.3368 210.558C-105.27 209.403 -113.063 209.918 -120.628 211.651C-146.368 217.547 -169.463 237.536 -186.469 253.818L-186.846 253.374ZM-51.8238 205.142L-51.6551 205.11L-51.8249 205.188L-51.9222 205.233L-51.8238 205.142ZM-54.6963 207.806C-55.9516 208.982 -57.1779 210.145 -58.3741 211.291L-58.751 210.846C-57.6829 209.823 -56.5903 208.786 -55.4742 207.737C-55.5421 207.732 -55.61 207.727 -55.6779 207.721C-58.2795 209.058 -60.8389 210.501 -63.3517 212.03C-62.4283 212.341 -61.5035 212.677 -60.5775 213.037C-58.2812 211.286 -55.9306 209.576 -53.5299 207.928C-53.919 207.883 -54.3079 207.842 -54.6963 207.806ZM-53.372 206.571C-53.6243 206.805 -53.8754 207.039 -54.1255 207.272C-53.682 207.318 -53.2381 207.369 -52.7936 207.425C-51.97 206.867 -51.1406 206.316 -50.3056 205.773C-49.8301 205.392 -49.3521 205.012 -48.8715 204.633L-49.0362 204.658C-49.1119 204.669 -49.1877 204.681 -49.2634 204.693C-50.6435 205.286 -52.0132 205.913 -53.372 206.571ZM-53.6857 206.068C-53.4343 205.835 -53.1817 205.601 -52.9281 205.367C-53.3226 205.45 -53.7165 205.537 -54.1097 205.627C-55.7977 206.014 -57.4743 206.461 -59.1386 206.964C-58.0294 206.986 -56.9168 207.038 -55.801 207.122C-55.099 206.763 -54.3939 206.411 -53.6857 206.068ZM-59.4412 213.492C-58.0399 212.252 -56.6096 211.01 -55.1517 209.773C-56.7723 210.921 -58.3693 212.095 -59.9413 213.289L-59.8233 213.336C-59.696 213.388 -59.5686 213.44 -59.4412 213.492ZM-68.5373 221.852C-65.8108 219.265 -62.9349 216.597 -59.9231 213.919C-60.108 213.844 -60.2929 213.77 -60.4777 213.698C-63.6304 216.109 -66.6811 218.598 -69.6188 221.106C-69.2583 221.35 -68.8979 221.599 -68.5373 221.852ZM-70.1214 220.767C-71.2053 220.043 -72.2885 219.358 -73.3709 218.709C-70.33 216.511 -67.2031 214.401 -63.9993 212.427C-63.0397 212.741 -62.0787 213.082 -61.1163 213.45C-64.2224 215.835 -67.2276 218.293 -70.1214 220.767ZM-64.0836 211.789C-61.6999 210.326 -59.2735 208.938 -56.8079 207.644C-58.2041 207.562 -59.5953 207.53 -60.981 207.545C-63.5882 208.401 -66.1639 209.39 -68.7043 210.493C-67.1684 210.859 -65.628 211.29 -64.0836 211.789ZM-73.92 218.383C-70.9394 216.221 -67.8749 214.142 -64.735 212.191C-66.3601 211.682 -67.9809 211.248 -69.5965 210.885C-72.7937 212.311 -75.9339 213.915 -79.0094 215.657C-77.3157 216.477 -75.619 217.385 -73.92 218.383ZM-80.0392 215.169L-80.1705 215.108L-80.2915 215.052C-82.2514 214.152 -84.2066 213.368 -86.1559 212.693C-83.1279 211.521 -80.0533 210.518 -76.9382 209.717C-74.8251 209.918 -72.701 210.235 -70.5677 210.676C-73.654 212.083 -76.6858 213.652 -79.6561 215.348C-79.7174 215.319 -79.7786 215.29 -79.8399 215.261L-79.9608 215.205L-80.0392 215.169ZM-69.6679 210.271C-71.5427 209.856 -73.4105 209.538 -75.2702 209.309L-75.1613 209.283L-75.0312 209.253C-71.0687 208.346 -67.0439 207.772 -62.969 207.598C-65.2277 208.396 -67.4614 209.292 -69.6679 210.271ZM-87.0251 212.399C-84.2855 211.314 -81.5068 210.365 -78.6936 209.576C-83.9286 209.234 -89.0936 209.59 -94.1635 210.512C-91.7949 210.986 -89.4147 211.611 -87.0251 212.399ZM16.1531 154.177C-9.74112 160.108 -32.929 180.197 -49.9319 196.476L-49.555 196.921C-32.5492 180.638 -9.45437 160.649 16.2862 154.753C29.1473 151.807 42.6651 152.381 56.418 158.695C70.1734 165.009 84.186 177.076 98.0181 197.155C130.228 243.911 130.916 286.693 131.448 319.739C131.497 322.807 131.545 325.792 131.617 328.687C132.039 345.708 133.279 359.75 140.541 369.731C147.818 379.733 161.075 385.58 185.321 386.417L185.32 385.828C161.123 384.993 148.089 379.159 140.974 369.379C133.844 359.579 132.592 345.74 132.17 328.691C132.098 325.798 132.05 322.814 132.001 319.745C131.47 286.692 130.781 243.734 98.4599 196.816C84.5835 176.673 70.495 164.523 56.6223 158.154C42.747 151.785 29.1093 151.209 16.1531 154.177ZM-43.2173 180.765C-26.2143 164.486 -3.02652 144.397 22.8677 138.466C35.824 135.498 49.4615 136.074 63.3369 142.443C77.2096 148.812 91.2981 160.962 105.175 181.105C137.496 228.023 138.185 270.981 138.715 304.034C138.765 307.103 138.812 310.087 138.884 312.98C139.307 330.029 140.558 343.868 147.688 353.668C154.803 363.448 167.838 369.282 192.035 370.117L192.035 370.706C167.789 369.869 154.532 364.022 147.256 354.02C139.994 344.039 138.753 329.997 138.331 312.976C138.26 310.081 138.212 307.097 138.162 304.029C137.631 270.982 136.942 228.2 104.733 181.444C90.9006 161.365 76.8881 149.298 63.1326 142.984C49.3797 136.67 35.8619 136.096 23.0008 139.042C-2.73977 144.938 -25.8346 164.927 -42.8404 181.21L-43.2173 180.765ZM28.0685 121.859C2.17426 127.79 -21.0136 147.879 -38.0165 164.158L-37.6396 164.603C-20.6338 148.321 2.46101 128.331 28.2016 122.435C41.0627 119.49 54.5805 120.063 68.3334 126.377C82.0888 132.691 96.1013 144.758 109.934 164.837C142.143 211.593 142.831 254.375 143.363 287.422L143.363 287.429C143.413 290.495 143.461 293.476 143.532 296.369C143.954 313.39 145.195 327.432 152.456 337.413C159.733 347.415 172.99 353.262 197.236 354.099L197.236 353.51C173.039 352.675 160.004 346.841 152.889 337.061C145.759 327.261 144.507 313.422 144.085 296.373C144.013 293.485 143.966 290.506 143.916 287.442L143.916 287.435L143.916 287.427C143.386 254.374 142.696 211.416 110.375 164.498C96.4989 144.355 82.4104 132.205 68.5377 125.837C54.6623 119.467 41.0247 118.891 28.0685 121.859ZM-33.758 147.025C-16.7551 130.746 6.43276 110.657 32.327 104.726C45.2832 101.758 58.9208 102.334 72.7962 108.704C86.6689 115.072 100.757 127.222 114.634 147.365C146.955 194.283 147.644 237.241 148.175 270.294C148.224 273.363 148.272 276.347 148.343 279.24C148.766 296.289 150.018 310.128 157.147 319.928C164.263 329.708 177.297 335.542 201.494 336.377L201.495 336.966C177.248 336.129 163.992 330.282 156.715 320.28C149.453 310.299 148.213 296.257 147.791 279.236C147.719 276.341 147.671 273.357 147.622 270.289C147.09 237.242 146.402 194.46 114.192 147.704C100.36 127.625 86.3473 115.558 72.5919 109.244C58.839 102.93 45.3212 102.356 32.4601 105.302C6.71951 111.198 -16.3753 131.187 -33.3811 147.47L-33.758 147.025ZM36.1247 87.3431C10.2305 93.2742 -12.9573 113.363 -29.9603 129.643L-29.5834 130.087C-12.5776 113.805 10.5173 93.8155 36.2579 87.9196C49.119 84.9738 62.6368 85.5476 76.3896 91.8611C90.1451 98.1758 104.158 110.242 117.99 130.321C150.199 177.077 150.888 219.859 151.419 252.906L151.42 252.914C151.469 255.979 151.517 258.96 151.589 261.854C152.01 278.874 153.251 292.916 160.513 302.897C167.789 312.899 181.046 318.747 205.292 319.583L205.292 318.994C181.095 318.159 168.06 312.325 160.945 302.546C153.815 292.746 152.564 278.907 152.141 261.857C152.07 258.971 152.022 255.994 151.973 252.932L151.973 252.928L151.972 252.914L151.972 252.911C151.442 219.859 150.753 176.9 118.432 129.983C104.555 109.84 90.4667 97.6894 76.594 91.3208C62.7186 84.9511 49.081 84.3755 36.1247 87.3431ZM-26.24 112.22C-9.23707 95.9409 13.9508 75.8518 39.845 69.9208C52.8012 66.9532 66.4388 67.5288 80.3142 73.8985C94.1869 80.2671 108.275 92.4174 122.152 112.56C154.473 159.478 155.162 202.436 155.693 235.489C155.742 238.558 155.79 241.542 155.861 244.435C156.284 261.484 157.536 275.323 164.665 285.123C171.78 294.903 184.815 300.737 209.012 301.572L209.013 302.161C184.766 301.324 171.51 295.477 164.233 285.475C156.971 275.494 155.731 261.452 155.309 244.431C155.237 241.536 155.189 238.552 155.14 235.484C154.608 202.437 153.92 159.655 121.71 112.899C107.878 92.8202 93.8653 80.7534 80.1098 74.4387C66.357 68.1252 52.8392 67.5515 39.9781 70.4973C14.2375 76.3931 -8.85735 96.3824 -25.8632 112.665L-26.24 112.22ZM43.7756 52.6083C17.8813 58.5393 -5.30647 78.6283 -22.3094 94.9079L-21.9326 95.3522C-4.92675 79.0699 18.1681 59.0806 43.9087 53.1848C56.7698 50.2389 70.2876 50.8127 84.0404 57.1262C97.7959 63.4409 111.808 75.5076 125.641 95.5865C157.85 142.342 158.539 185.124 159.07 218.171L159.07 218.176L159.071 218.207C159.12 221.262 159.168 224.234 159.239 227.119C159.661 244.14 160.902 258.181 168.163 268.162C175.44 278.164 188.697 284.012 212.943 284.849L212.943 284.259C188.746 283.424 175.711 277.59 168.596 267.811C161.466 258.011 160.215 244.172 159.792 227.123C159.72 224.229 159.672 221.245 159.623 218.176C159.093 185.124 158.403 142.165 126.082 95.2479C112.206 75.1049 98.1175 62.9545 84.2448 56.586C70.3694 50.2163 56.7318 49.6407 43.7756 52.6083ZM-17.9572 77.826C-0.954202 61.5465 22.2336 41.4575 48.1278 35.5265C61.0841 32.5588 74.7217 33.1344 88.597 39.5042C102.47 45.8727 116.558 58.023 130.435 78.1661C162.756 125.083 163.445 168.042 163.975 201.094C164.025 204.164 164.073 207.147 164.144 210.041C164.567 227.09 165.818 240.929 172.948 250.729C180.063 260.508 193.098 266.343 217.295 267.178L217.296 267.767C193.049 266.93 179.793 261.082 172.516 251.081C165.254 241.099 164.013 227.058 163.592 210.037C163.52 207.141 163.472 204.157 163.422 201.089C162.891 168.043 162.203 125.26 129.993 78.5047C116.161 58.4258 102.148 46.3591 88.3927 40.0444C74.6399 33.7309 61.1221 33.1571 48.2609 36.1029C22.5204 41.9988 -0.574469 61.9881 -17.5803 78.2704L-17.9572 77.826ZM53.0474 18.7619C27.1532 24.6929 3.96537 44.7819 -13.0376 61.0615L-12.6607 61.5058C4.3451 45.2235 27.4399 25.2342 53.1805 19.3384C66.0416 16.3925 79.5594 16.9663 93.3123 23.2798C107.068 29.5945 121.08 41.6613 134.912 61.7401C167.122 108.496 167.81 151.278 168.342 184.325L168.342 184.331L168.342 184.337C168.392 187.401 168.44 190.381 168.511 193.272C168.933 210.293 170.173 224.335 177.435 234.316C184.712 244.318 197.969 250.165 222.215 251.002L222.215 250.413C198.018 249.578 184.983 243.744 177.868 233.965C170.738 224.164 169.486 210.325 169.064 193.276C168.992 190.385 168.944 187.404 168.895 184.337L168.895 184.33C168.365 151.277 167.675 108.319 135.354 61.4015C121.478 41.2585 107.389 29.1081 93.5166 22.7396C79.6413 16.3699 66.0037 15.7943 53.0474 18.7619ZM-7.45339 44.675C9.54957 28.3955 32.7374 8.30652 58.6316 2.37546C71.5879 -0.592161 85.2255 -0.0165473 99.1008 6.35319C112.974 12.7217 127.062 24.872 140.938 45.0151C173.26 91.9325 173.949 134.891 174.479 167.944C174.528 171.013 174.576 173.996 174.648 176.89C175.071 193.939 176.322 207.778 183.452 217.578C190.567 227.358 203.602 233.192 227.799 234.027L227.799 234.616C203.553 233.779 190.296 227.931 183.019 217.93C175.758 207.948 174.517 193.907 174.095 176.886C174.024 173.992 173.976 171.01 173.926 167.945L173.926 167.938C173.395 134.892 172.706 92.1094 140.497 45.3537C126.664 25.2748 112.652 13.2081 98.8965 6.89339C85.1436 0.579898 71.6258 0.00611443 58.7647 2.95195C33.0241 8.84781 9.9293 28.8371 -7.07652 45.1194L-7.45339 44.675Z" fill="url(#paint0_radial_5_54)" fill-opacity="0.58"/>
<defs>
<radialGradient id="paint0_radial_5_54" cx="0" cy="0" r="1" gradientUnits="userSpaceOnUse" gradientTransform="translate(66.5151 193.56) rotate(46.6543) scale(202.361 204.517)">
<stop stop-color="white"/>
<stop offset="1" stop-color="#1E1E1E" stop-opacity="0"/>
<stop offset="1" stop-color="#0E0E35" stop-opacity="0"/>
<stop offset="1" stop-color="white" stop-opacity="0"/>
</radialGradient>
</defs>
</svg>
