<?xml version="1.0" standalone="no"?>
<!DOCTYPE svg PUBLIC "-//W3C//DTD SVG 20010904//EN"
 "http://www.w3.org/TR/2001/REC-SVG-20010904/DTD/svg10.dtd">
<svg version="1.0" xmlns="http://www.w3.org/2000/svg"
 width="1036.000000pt" height="520.000000pt" viewBox="0 0 1036.000000 520.000000"
 preserveAspectRatio="xMidYMid meet">

<g transform="translate(0.000000,520.000000) scale(0.100000,-0.100000)"
fill="#000000" stroke="none">
<path d="M5010 4224 c-315 -9 -784 -46 -805 -64 -6 -5 -22 -7 -36 -4 -19 5
-21 3 -9 -5 13 -9 12 -11 -5 -11 -12 0 -25 -4 -31 -10 -5 -5 -21 -11 -34 -14
-14 -2 -24 -9 -23 -15 2 -6 0 -10 -5 -9 -13 2 -92 -39 -86 -45 4 -4 -2 -5 -13
-3 -11 3 -32 -6 -48 -20 -32 -28 -44 -31 -24 -8 7 9 49 37 92 62 86 50 96 59
72 68 -37 15 -328 -156 -560 -328 -77 -57 -197 -152 -268 -211 -98 -83 -129
-104 -133 -92 -4 9 -19 22 -34 30 -25 13 -35 13 -82 -1 -76 -23 -143 -59 -192
-104 -24 -22 -46 -37 -49 -33 -14 13 -6 -68 9 -108 l17 -41 96 6 c53 3 798 8
1656 12 l1560 6 34 92 c125 333 262 625 352 749 27 37 49 69 49 71 0 10 -34
15 -44 7 -7 -5 -96 -4 -226 5 -209 13 -1000 25 -1230 18z m-450 -221 c0 -5
-10 -21 -21 -38 -12 -16 -19 -22 -15 -12 3 11 0 17 -9 17 -10 0 -13 -9 -10
-30 2 -17 0 -28 -5 -25 -5 3 -6 13 -3 22 12 31 -16 3 -33 -33 -16 -34 -39 -41
-57 -19 -5 6 -5 0 -2 -12 4 -14 2 -23 -5 -23 -6 0 -27 -12 -46 -26 -19 -15
-34 -23 -34 -19 0 3 -12 -3 -26 -14 -15 -12 -36 -21 -48 -22 -20 0 -20 -1 -2
-8 17 -6 14 -10 -18 -29 -20 -12 -39 -28 -42 -37 -4 -8 -18 -15 -33 -15 -20
-1 -33 -12 -61 -55 -19 -30 -41 -55 -48 -55 -18 0 -41 -29 -42 -52 0 -12 -8
-18 -25 -18 -16 0 -39 -13 -61 -35 -19 -19 -39 -35 -44 -35 -4 0 -11 -13 -15
-30 -6 -26 -11 -30 -43 -31 -33 -1 -34 -2 -12 -8 19 -6 10 -9 -40 -14 -95 -9
-452 -28 -456 -24 -5 4 174 160 286 249 211 166 469 322 635 381 97 34 335 70
335 50z m-140 -218 c0 -5 -5 -3 -10 5 -5 8 -10 20 -10 25 0 6 5 3 10 -5 5 -8
10 -19 10 -25z"/>
<path d="M6915 4209 c-219 -20 -302 -62 -395 -199 -68 -100 -170 -324 -259
-570 -23 -63 -45 -122 -48 -130 -3 -8 -8 -32 -9 -53 l-4 -39 126 4 126 3 -46
-19 c-25 -10 -46 -23 -46 -29 0 -30 139 -97 200 -97 59 0 85 15 127 73 26 35
31 47 19 47 -9 0 -16 4 -16 9 0 4 75 10 168 13 133 4 174 8 201 22 26 14 60
18 150 19 l116 1 -103 3 c-76 3 -102 7 -99 16 2 7 13 11 23 9 15 -2 16 -1 5 6
-11 8 -11 14 3 33 31 45 23 52 -51 46 -38 -4 -115 -9 -173 -12 -92 -5 -103 -4
-87 8 11 10 70 19 177 27 88 7 160 16 160 21 0 4 3 14 6 23 4 10 1 16 -9 16
-9 0 -20 6 -24 13 -4 7 -53 26 -108 41 -177 50 -199 58 -184 67 14 7 141 -11
207 -30 20 -6 30 -6 27 0 -4 5 -13 9 -22 9 -9 0 -14 2 -11 5 3 3 -8 45 -23 92
-16 48 -25 90 -21 94 11 9 124 39 132 34 17 -10 52 -158 48 -205 -4 -57 7 -67
16 -15 7 34 28 47 41 25 9 -14 28 -12 22 3 -2 6 2 18 9 25 12 10 14 10 14 -2
0 -8 5 -18 11 -22 8 -5 9 9 4 47 -7 53 -56 257 -70 292 -4 9 -3 17 2 17 5 0
31 -69 57 -152 26 -84 54 -162 61 -174 13 -21 49 -178 61 -271 6 -49 9 -53 33
-53 20 0 23 2 11 10 -11 7 0 10 38 10 34 0 52 -4 52 -12 0 -9 3 -9 12 0 7 7
30 13 52 14 l41 1 -45 6 c-44 6 -45 7 -52 51 -11 60 -28 150 -34 175 -3 12 -2
15 3 8 6 -8 13 -8 28 3 16 12 17 16 6 23 -9 6 -10 11 -2 15 6 4 13 -4 17 -18
6 -27 8 -26 55 17 16 14 39 17 142 17 76 0 127 -4 134 -11 7 -7 24 -8 42 -4
27 6 31 10 25 28 -17 56 -25 59 -199 54 -88 -2 -170 -7 -181 -11 -20 -7 -24
-1 -49 74 -15 45 -25 83 -23 86 9 8 324 27 349 21 14 -4 57 -30 95 -59 70 -53
216 -192 209 -200 -2 -2 6 -4 18 -5 12 0 16 1 9 4 -10 4 -8 8 5 18 15 11 21
11 37 -3 18 -16 -50 123 -77 157 -6 7 -16 21 -22 30 -51 86 -67 98 -195 149
-69 28 -155 58 -192 68 -38 10 -68 22 -68 27 0 4 -10 5 -22 2 -19 -5 -20 -4
-8 5 12 10 11 11 -9 6 -15 -3 -20 -1 -14 5 13 13 114 -10 106 -24 -3 -6 -1 -7
5 -3 15 9 111 -17 238 -66 93 -35 103 -42 133 -86 103 -154 171 -247 180 -245
6 2 7 -5 4 -14 -4 -10 -2 -14 5 -9 6 3 13 -2 16 -11 14 -46 65 -231 70 -255 5
-23 3 -27 -21 -31 -16 -3 36 -4 115 -4 130 2 170 -4 125 -17 -11 -3 -9 -4 6
-3 16 1 25 9 27 22 3 21 94 106 107 98 4 -2 7 3 7 13 0 22 37 54 64 55 36 2
90 -2 109 -7 52 -16 -4 30 -178 145 -398 264 -602 372 -873 465 -213 73 -383
106 -647 125 -156 12 -200 12 -330 0z m585 -119 c0 -5 -14 -7 -32 -3 -46 8
-48 13 -5 13 21 0 37 -4 37 -10z m60 -10 c0 -5 -7 -7 -15 -4 -8 4 -15 8 -15
10 0 2 7 4 15 4 8 0 15 -4 15 -10z m50 -10 c-8 -5 -19 -10 -25 -10 -5 0 -3 5
5 10 8 5 20 10 25 10 6 0 3 -5 -5 -10z m-502 -181 c2 -12 -11 -21 -47 -33 -27
-9 -56 -16 -64 -16 -16 0 -40 54 -29 65 3 3 36 5 71 3 51 -2 66 -7 69 -19z
m1190 -234 c-3 -3 -9 2 -12 12 -6 14 -5 15 5 6 7 -7 10 -15 7 -18z m-803 -103
c11 -2 21 -5 22 -6 3 -3 43 -195 43 -207 0 -5 -22 -9 -49 -9 l-48 0 -6 58 c-3
31 -9 81 -13 111 -5 40 -4 52 4 47 8 -4 12 0 12 11 0 10 4 14 8 8 4 -5 16 -12
27 -13z m1073 -24 c18 -10 41 -18 52 -18 10 0 29 -4 42 -9 13 -5 35 -12 51
-15 15 -4 27 -12 27 -18 0 -6 -27 -38 -60 -71 -51 -49 -63 -57 -76 -46 -11 9
-18 9 -26 1 -7 -7 -40 -12 -74 -12 l-61 0 -12 68 c-7 37 -13 76 -14 86 -3 31
22 30 29 0 7 -26 8 -26 15 -9 7 19 8 19 15 -3 4 -16 9 -20 14 -12 6 9 14 6 29
-9 27 -27 35 -27 21 0 -6 11 -17 38 -25 59 -15 44 -12 44 53 8z"/>
<path d="M8360 3946 c0 -2 30 -22 66 -45 60 -38 70 -41 137 -41 110 -1 336
-27 389 -45 l48 -17 -30 -25 c-17 -14 -30 -29 -30 -34 0 -5 24 -21 52 -35 l52
-27 -47 -41 c-26 -22 -47 -47 -47 -53 0 -7 -9 -13 -21 -13 -15 0 6 -20 68 -68
93 -72 113 -86 113 -79 0 3 -33 31 -72 63 -49 39 -67 60 -56 62 10 2 14 10 11
21 -3 13 8 28 39 50 23 17 44 27 46 21 2 -6 -2 -33 -8 -60 -13 -55 -6 -115 11
-89 5 7 9 24 9 36 0 16 5 20 19 16 13 -3 24 4 37 26 17 29 22 31 79 31 34 0
66 5 73 12 7 7 12 42 12 86 0 58 -5 82 -20 108 -23 36 -30 40 -110 49 -75 8
-289 43 -376 60 -89 18 -444 43 -444 31z m780 -325 c0 -5 -8 -19 -19 -32 l-18
-23 5 32 c2 18 10 32 18 32 8 0 14 -4 14 -9z"/>
<path d="M7498 3303 c6 -2 18 -2 25 0 6 3 1 5 -13 5 -14 0 -19 -2 -12 -5z"/>
<path d="M7586 3295 c5 -11 -9 -15 -73 -18 -43 -1 3 -3 102 -3 99 0 136 2 83
3 -78 3 -98 7 -98 18 0 8 -4 15 -10 15 -5 0 -7 -7 -4 -15z"/>
<path d="M8203 3283 c76 -2 198 -2 270 0 73 1 11 3 -138 3 -148 0 -208 -2
-132 -3z"/>
<path d="M9270 3236 c0 -7 -10 -26 -22 -42 -20 -26 -20 -27 -2 -11 26 22 41
22 101 -3 40 -16 44 -17 23 -2 -13 9 -39 29 -56 45 -36 30 -44 33 -44 13z"/>
<path d="M6193 3145 c0 -27 2 -38 4 -22 2 15 2 37 0 50 -2 12 -4 0 -4 -28z"/>
<path d="M5760 3139 c0 -13 -7 -37 -15 -53 -13 -25 -13 -27 0 -16 16 13 31 77
21 87 -3 4 -6 -5 -6 -18z"/>
<path d="M9210 3098 c0 -21 171 -186 200 -193 39 -9 55 27 45 102 -10 79 -19
93 -58 91 -18 -1 -67 2 -109 6 -64 7 -78 6 -78 -6z"/>
<path d="M2312 3070 c-50 -4 -95 -10 -99 -13 -9 -9 1177 -9 1258 0 l64 7 -45
7 c-57 9 -1053 8 -1178 -1z"/>
<path d="M5658 3033 c7 -3 16 -2 19 1 4 3 -2 6 -13 5 -11 0 -14 -3 -6 -6z"/>
<path d="M5583 3023 c9 -2 25 -2 35 0 9 3 1 5 -18 5 -19 0 -27 -2 -17 -5z"/>
<path d="M5498 3013 c12 -2 30 -2 40 0 9 3 -1 5 -23 4 -22 0 -30 -2 -17 -4z"/>
<path d="M5340 3000 c-41 -6 -42 -7 -10 -8 19 0 55 3 80 7 40 8 41 8 10 8 -19
0 -55 -3 -80 -7z"/>
<path d="M5165 2980 l-40 -7 35 -1 c19 0 55 3 80 7 l45 8 -40 0 c-22 0 -58 -3
-80 -7z"/>
<path d="M5005 2960 l-40 -7 35 -1 c19 0 55 3 80 7 l45 8 -40 0 c-22 0 -58 -3
-80 -7z"/>
<path d="M4850 2940 c-34 -7 -34 -7 -5 -8 17 0 50 3 75 7 l45 8 -40 0 c-22 0
-56 -3 -75 -7z"/>
<path d="M4753 2923 c9 -2 25 -2 35 0 9 3 1 5 -18 5 -19 0 -27 -2 -17 -5z"/>
<path d="M4658 2913 c12 -2 30 -2 40 0 9 3 -1 5 -23 4 -22 0 -30 -2 -17 -4z"/>
<path d="M8655 2910 c3 -5 8 -10 11 -10 2 0 4 5 4 10 0 6 -5 10 -11 10 -5 0
-7 -4 -4 -10z"/>
<path d="M4568 2903 c6 -2 18 -2 25 0 6 3 1 5 -13 5 -14 0 -19 -2 -12 -5z"/>
<path d="M7560 2890 c0 -5 7 -10 15 -10 8 0 15 5 15 10 0 6 -7 10 -15 10 -8 0
-15 -4 -15 -10z"/>
<path d="M4675 2773 c-539 -54 -1142 -120 -1214 -133 -29 -5 -58 -7 -64 -3 -6
3 -7 1 -3 -5 4 -7 3 -12 -3 -12 -5 0 -18 -3 -28 -6 -15 -5 -15 -4 -3 5 9 7 11
11 3 11 -7 0 -16 -7 -20 -15 -19 -33 -413 -64 -821 -65 -126 0 -190 4 -205 12
-31 17 -216 17 -249 0 -20 -11 -73 -12 -289 -3 -145 6 -280 13 -299 15 -33 4
-144 43 -233 81 -22 9 -46 15 -55 13 -17 -4 84 -43 225 -89 40 -13 73 -27 73
-31 0 -19 -58 -3 -239 67 -52 19 -98 32 -101 28 -4 -4 -20 -46 -35 -93 -16
-47 -32 -88 -38 -91 -22 -15 7 -40 120 -104 65 -36 147 -91 183 -122 36 -30
83 -64 106 -74 64 -29 292 -39 874 -39 562 1 537 -1 732 64 191 64 326 90 763
146 322 41 560 67 735 80 169 13 253 26 293 46 15 8 72 60 127 115 54 54 103
99 110 99 22 0 -18 30 -92 68 -72 36 -75 37 -193 38 -66 1 -138 0 -160 -3z
m233 -42 c9 -6 31 -13 47 -17 29 -7 29 -8 -15 -15 -65 -11 -180 -11 -180 0 0
6 17 12 38 14 26 3 20 4 -23 5 -43 2 -56 5 -45 12 19 12 155 13 178 1z m-298
-51 c0 -5 -15 -9 -32 -9 l-33 1 30 8 c17 4 31 8 33 9 1 0 2 -3 2 -9z m-385
-10 c16 -7 14 -9 -14 -9 -19 -1 -32 -4 -28 -7 3 -3 63 -1 134 6 174 16 245 9
88 -8 -291 -33 -326 -37 -320 -44 4 -4 -2 -4 -12 -2 -20 6 -229 -20 -484 -58
-88 -13 -153 -18 -165 -13 -10 4 -22 7 -26 7 -18 -4 -6 8 20 22 43 22 150 42
367 70 349 46 407 50 440 36z m551 -82 c-18 -26 -22 -17 -5 14 6 11 13 17 16
15 3 -3 -2 -16 -11 -29z m-26 -58 c-6 -12 -14 -19 -17 -17 -2 3 1 15 7 27 6
12 14 19 17 17 2 -3 -1 -15 -7 -27z m-2470 10 c24 -13 30 -44 21 -110 l-7 -55
-8 63 c-4 34 -12 64 -16 67 -13 8 -30 -29 -30 -64 0 -42 -9 -61 -30 -61 -16 0
-17 5 -9 38 12 51 11 82 -2 82 -5 0 -7 -6 -3 -12 6 -10 4 -10 -8 0 -10 8 -19
9 -22 3 -3 -5 -16 -7 -28 -3 -20 5 -21 3 -15 -51 3 -32 2 -57 -3 -57 -14 0
-21 18 -28 67 -7 45 -32 73 -32 36 0 -10 -5 -25 -11 -33 -8 -11 -9 -4 -5 30 3
26 12 50 22 57 21 16 186 18 214 3z m2520 -40 c0 -5 -7 -10 -16 -10 -8 0 -12
5 -9 10 3 6 10 10 16 10 5 0 9 -4 9 -10z m-1780 -215 c-7 -9 -15 -13 -17 -11
-7 7 7 26 19 26 6 0 6 -6 -2 -15z"/>
<path d="M4118 2643 c7 -3 16 -2 19 1 4 3 -2 6 -13 5 -11 0 -14 -3 -6 -6z"/>
<path d="M1220 2723 c0 -22 140 -102 213 -121 32 -9 37 -9 27 3 -9 11 -70 43
-232 123 -5 2 -8 0 -8 -5z"/>
<path d="M6271 2604 c0 -11 3 -14 6 -6 3 7 2 16 -1 19 -3 4 -6 -2 -5 -13z"/>
<path d="M9108 2597 c-95 -30 -199 -140 -259 -274 -17 -37 -35 -70 -40 -71 -5
-2 -7 -7 -4 -12 3 -4 -10 -54 -29 -111 -18 -57 -51 -177 -72 -266 l-39 -162
-78 -17 c-74 -16 -81 -20 -172 -100 -107 -94 -134 -111 -204 -124 -52 -10
-648 -74 -1306 -140 -482 -48 -530 -55 -572 -81 -44 -28 -42 -42 5 -35 20 3
100 10 177 16 77 6 160 13 185 15 52 5 541 51 1025 95 182 17 383 32 448 33
l119 2 23 -61 c20 -53 64 -138 98 -186 6 -9 9 -19 7 -21 -3 -2 -75 0 -160 4
-295 15 -1088 29 -1619 29 l-533 0 6 23 c3 12 6 25 6 30 0 4 17 8 38 8 72 2
87 11 89 49 1 19 8 109 14 199 25 356 -26 684 -138 886 -50 91 -142 184 -218
221 -54 26 -70 29 -156 29 -91 0 -99 -2 -171 -38 -88 -45 -151 -104 -215 -201
-152 -231 -238 -550 -272 -1010 -6 -71 -15 -134 -20 -139 -8 -8 -11 -7 -11 1
0 7 -3 11 -7 11 -5 -1 -53 0 -108 1 -70 2 -91 5 -70 10 37 10 -116 3 -240 -11
-87 -10 -123 -19 -74 -19 18 0 21 -2 9 -9 -8 -6 -27 -7 -42 -4 -15 3 -34 0
-42 -6 -10 -8 -94 -14 -268 -17 -250 -5 -253 -5 -292 18 -22 13 -41 28 -43 35
-6 16 11 19 207 38 407 40 507 54 576 80 100 38 108 47 101 122 -7 72 -118
413 -171 525 -19 40 -46 84 -60 97 -25 24 -26 24 -53 5 -15 -10 -37 -17 -48
-15 -19 3 -19 2 -1 -11 15 -12 17 -18 7 -37 -7 -12 -16 -19 -22 -16 -5 4 -9 1
-9 -4 0 -6 5 -11 11 -11 6 0 9 -7 6 -15 -4 -8 -2 -17 3 -20 7 -4 7 -13 0 -24
-8 -17 -1 -136 16 -246 8 -56 54 -122 75 -110 5 4 9 1 9 -5 0 -6 11 -26 25
-44 14 -18 25 -35 25 -38 0 -7 -116 -24 -252 -38 -224 -23 -296 -31 -348 -38
-30 -4 -93 -7 -139 -7 l-85 0 -74 95 c-313 403 -333 423 -472 457 -67 17 -695
32 -1495 35 -531 3 -551 2 -582 -17 -60 -35 -77 -107 -89 -364 -6 -110 -10
-141 -21 -141 -27 0 -103 60 -103 81 0 4 5 19 11 33 9 19 6 55 -11 162 -12 77
-27 195 -34 263 -11 124 -27 164 -42 105 -8 -32 9 -265 32 -443 15 -116 15
-181 0 -241 -6 -21 3 -35 53 -85 32 -33 63 -60 67 -60 5 0 26 -8 47 -18 45
-22 272 -31 1882 -78 209 -6 416 -15 460 -19 97 -11 -475 -4 -875 10 -151 5
-446 14 -655 20 -209 6 -463 15 -565 19 -102 5 -187 7 -188 5 -2 -1 -5 -17 -5
-35 -2 -28 2 -33 37 -45 22 -8 71 -17 109 -21 67 -6 69 -7 94 -47 44 -69 124
-140 198 -177 70 -34 70 -34 35 -37 -19 -2 -39 -10 -43 -18 -4 -8 -19 -14 -33
-14 -29 0 -42 -26 -23 -45 65 -65 1914 -123 3044 -96 1096 26 1327 37 1345 60
3 3 16 7 30 9 14 1 61 11 105 22 44 10 136 24 205 30 69 6 244 22 390 36 146
13 344 31 440 39 96 8 198 17 225 20 67 7 466 41 695 60 237 19 655 42 976 53
284 11 283 10 360 95 154 169 242 586 190 905 -11 69 -11 82 0 82 9 0 14 12
14 33 0 21 -3 28 -9 19 -14 -23 -18 6 -11 103 6 84 4 94 -21 145 -91 183 -209
258 -341 217z m-3368 -177 c11 -7 5 -10 -22 -10 -21 0 -38 5 -38 10 0 13 40
13 60 0z m-70 -8 c0 -4 -24 -18 -52 -31 -29 -14 -61 -31 -70 -39 -10 -8 -18
-11 -18 -5 0 9 46 47 85 70 23 13 55 16 55 5z m3625 -429 c-44 -110 -53 -121
-112 -125 -13 -2 -29 -8 -35 -15 -6 -7 -14 -13 -18 -13 -4 0 11 19 34 43 22
23 67 84 99 135 31 51 61 90 66 87 5 -3 -10 -53 -34 -112z m-3346 -67 c-18
-23 -39 -43 -46 -43 -18 0 -23 -8 47 77 38 46 37 16 -1 -34z m-55 -77 c-3 -5
-10 -7 -15 -3 -5 3 -7 10 -3 15 3 5 10 7 15 3 5 -3 7 -10 3 -15z m-304 -24 c0
-8 -4 -15 -9 -15 -13 0 -22 16 -14 24 11 11 23 6 23 -9z m3520 -26 c0 -6 -7
-9 -15 -5 -11 4 -15 -2 -16 -22 -1 -21 -2 -23 -7 -7 l-5 20 -8 -20 c-7 -18 -8
-17 -8 6 -1 14 2 29 6 32 11 11 53 8 53 -4z m-86 -135 c3 -8 2 -12 -4 -9 -6 3
-10 10 -10 16 0 14 7 11 14 -7z m365 -157 c-11 -54 -13 -56 -26 -37 -9 13 -12
33 -9 53 3 17 3 26 0 19 -8 -18 -44 25 -44 54 0 19 5 22 35 20 28 -1 35 3 42
24 14 45 16 -69 2 -133z m-3700 111 c-1 -24 -3 -27 -6 -10 -7 36 -23 25 -23
-15 0 -28 -3 -34 -10 -23 -5 8 -10 26 -11 40 l-1 25 -8 -25 -8 -25 -1 26 c-1
33 5 39 41 39 25 0 28 -3 27 -32z m3344 -42 c17 -13 14 -18 -32 -67 -45 -50
-49 -52 -48 -27 1 14 5 24 10 21 4 -2 7 3 7 12 0 20 28 75 38 75 4 0 15 -7 25
-14z m384 -88 c-3 -8 -6 -5 -6 6 -1 11 2 17 5 13 3 -3 4 -12 1 -19z m-3807
-34 c0 -8 -4 -14 -10 -14 -5 0 -10 5 -10 12 0 6 -2 9 -5 6 -3 -2 2 -23 11 -45
l16 -41 -68 -64 c-38 -35 -78 -73 -90 -85 -55 -58 -44 -6 14 70 64 82 97 136
106 170 6 24 9 27 21 17 8 -7 15 -19 15 -26z m210 -59 c9 -11 10 -19 2 -27
-13 -13 -64 21 -57 39 2 7 0 15 -5 18 -6 4 -10 11 -10 16 0 11 49 -21 70 -46z
m3540 19 c0 -8 -4 -13 -9 -9 -6 3 -14 -3 -20 -12 -14 -23 -14 -7 -1 18 13 23
30 25 30 3z m-8420 -24 c6 -11 7 -20 3 -20 -5 0 -14 9 -21 20 -7 11 -8 20 -2
20 5 0 14 -9 20 -20z m5067 -107 c-3 -3 -11 -2 -17 2 -9 6 -9 10 1 16 14 8 27
-7 16 -18z m-1480 -119 c-3 -3 -12 -4 -19 -1 -8 3 -5 6 6 6 11 1 17 -2 13 -5z
m-1692 -79 c252 -7 722 -32 970 -50 110 -8 277 -16 370 -16 l170 -2 -115 -8
c-63 -4 -216 -15 -340 -24 -438 -31 -1121 -74 -1414 -89 l-88 -5 61 62 c33 34
74 81 91 105 28 39 33 42 68 37 20 -2 123 -7 227 -10z m1899 -36 c-3 -5 -10
-7 -15 -3 -5 3 -7 10 -3 15 3 5 10 7 15 3 5 -3 7 -10 3 -15z m1043 -112 c0
-15 -12 -17 -70 -17 -26 1 -36 -3 -32 -10 4 -7 -1 -6 -14 2 -31 19 -26 24 23
20 25 -2 53 1 63 7 24 14 30 14 30 -2z"/>
<path d="M6284 2140 c0 -63 1 -89 3 -57 2 31 2 83 0 115 -2 31 -3 5 -3 -58z"/>
<path d="M3952 1758 c-8 -10 -5 -13 14 -13 13 0 23 4 21 9 -5 16 -23 18 -35 4z"/>
<path d="M9574 1698 c-82 -91 -85 -119 -6 -79 72 36 100 66 86 89 -19 29 -48
25 -80 -10z"/>
<path d="M8133 1623 c9 -2 23 -2 30 0 6 3 -1 5 -18 5 -16 0 -22 -2 -12 -5z"/>
<path d="M8043 1613 c9 -2 25 -2 35 0 9 3 1 5 -18 5 -19 0 -27 -2 -17 -5z"/>
<path d="M7933 1603 c9 -2 25 -2 35 0 9 3 1 5 -18 5 -19 0 -27 -2 -17 -5z"/>
<path d="M7818 1593 c12 -2 32 -2 45 0 12 2 2 4 -23 4 -25 0 -35 -2 -22 -4z"/>
<path d="M7698 1583 c12 -2 32 -2 45 0 12 2 2 4 -23 4 -25 0 -35 -2 -22 -4z"/>
<path d="M7608 1573 c12 -2 30 -2 40 0 9 3 -1 5 -23 4 -22 0 -30 -2 -17 -4z"/>
<path d="M7508 1563 c12 -2 30 -2 40 0 9 3 -1 5 -23 4 -22 0 -30 -2 -17 -4z"/>
<path d="M7398 1553 c12 -2 32 -2 45 0 12 2 2 4 -23 4 -25 0 -35 -2 -22 -4z"/>
<path d="M7278 1543 c12 -2 32 -2 45 0 12 2 2 4 -23 4 -25 0 -35 -2 -22 -4z"/>
<path d="M7178 1533 c12 -2 32 -2 45 0 12 2 2 4 -23 4 -25 0 -35 -2 -22 -4z"/>
<path d="M7073 1523 c9 -2 25 -2 35 0 9 3 1 5 -18 5 -19 0 -27 -2 -17 -5z"/>
<path d="M6958 1513 c12 -2 30 -2 40 0 9 3 -1 5 -23 4 -22 0 -30 -2 -17 -4z"/>
<path d="M6848 1503 c12 -2 30 -2 40 0 9 3 -1 5 -23 4 -22 0 -30 -2 -17 -4z"/>
<path d="M6738 1493 c12 -2 30 -2 40 0 9 3 -1 5 -23 4 -22 0 -30 -2 -17 -4z"/>
<path d="M6623 1483 c9 -2 25 -2 35 0 9 3 1 5 -18 5 -19 0 -27 -2 -17 -5z"/>
<path d="M6493 1473 c9 -2 23 -2 30 0 6 3 -1 5 -18 5 -16 0 -22 -2 -12 -5z"/>
<path d="M6388 1463 c12 -2 30 -2 40 0 9 3 -1 5 -23 4 -22 0 -30 -2 -17 -4z"/>
</g>
</svg>
