<svg width="271" height="44" viewBox="0 0 271 44" fill="none" xmlns="http://www.w3.org/2000/svg">
<path d="M16.48 26.44C13.24 26.44 10.38 25.96 7.9 25C5.46 24 3.56 22.54 2.2 20.62C0.84 18.7 0.16 16.38 0.16 13.66C0.16 10.98 0.82 8.66 2.14 6.7C3.46 4.74 5.34 3.22 7.78 2.14C10.26 1.06 13.16 0.519999 16.48 0.519999C17.4 0.519999 18.28 0.579999 19.12 0.7C20 0.819999 20.86 0.979998 21.7 1.18L36.76 1.24V7.12C34.72 7.16 32.64 6.92 30.52 6.4C28.44 5.84 26.6 5.24 25 4.6L24.82 4.18C26.18 4.82 27.46 5.62 28.66 6.58C29.86 7.5 30.82 8.58 31.54 9.82C32.3 11.02 32.68 12.42 32.68 14.02C32.68 16.62 32.02 18.86 30.7 20.74C29.38 22.58 27.5 24 25.06 25C22.66 25.96 19.8 26.44 16.48 26.44ZM26.5 43.3V41.86C26.5 40.02 25.9 38.74 24.7 38.02C23.54 37.3 21.94 36.94 19.9 36.94H10.6C8.8 36.94 7.28 36.8 6.04 36.52C4.84 36.24 3.88 35.84 3.16 35.32C2.44 34.8 1.92 34.18 1.6 33.46C1.28 32.78 1.12 32.04 1.12 31.24C1.12 29.64 1.64 28.44 2.68 27.64C3.72 26.8 5.12 26.24 6.88 25.96C8.64 25.68 10.58 25.62 12.7 25.78L16.48 26.44C13.96 26.52 12.08 26.74 10.84 27.1C9.64 27.42 9.04 28.08 9.04 29.08C9.04 29.68 9.28 30.16 9.76 30.52C10.24 30.84 10.92 31 11.8 31H21.58C24.26 31 26.54 31.28 28.42 31.84C30.34 32.44 31.8 33.42 32.8 34.78C33.8 36.18 34.3 38.08 34.3 40.48V43.3H26.5ZM16.48 20.8C18.2 20.8 19.7 20.52 20.98 19.96C22.3 19.4 23.32 18.6 24.04 17.56C24.76 16.48 25.12 15.2 25.12 13.72C25.12 12.2 24.76 10.9 24.04 9.82C23.32 8.74 22.32 7.92 21.04 7.36C19.76 6.76 18.24 6.46 16.48 6.46C14.76 6.46 13.24 6.76 11.92 7.36C10.6 7.92 9.58 8.74 8.86 9.82C8.14 10.9 7.78 12.2 7.78 13.72C7.78 15.2 8.14 16.48 8.86 17.56C9.58 18.6 10.58 19.4 11.86 19.96C13.18 20.52 14.72 20.8 16.48 20.8ZM55.8466 31.66C52.8866 31.66 50.1866 31.02 47.7466 29.74C45.3466 28.42 43.4266 26.6 41.9866 24.28C40.5866 21.92 39.8866 19.2 39.8866 16.12C39.8866 12.96 40.6066 10.22 42.0466 7.9C43.4866 5.58 45.4266 3.78 47.8666 2.5C50.3466 1.18 53.1466 0.519999 56.2666 0.519999C59.7066 0.519999 62.4666 1.22 64.5466 2.62C66.6666 3.98 68.2066 5.84 69.1666 8.2C70.1266 10.56 70.6066 13.2 70.6066 16.12C70.6066 17.88 70.3266 19.68 69.7666 21.52C69.2066 23.32 68.3466 25 67.1866 26.56C66.0266 28.08 64.5066 29.32 62.6266 30.28C60.7466 31.2 58.4866 31.66 55.8466 31.66ZM58.3666 25.66C60.7266 25.66 62.7666 25.26 64.4866 24.46C66.2066 23.66 67.5266 22.54 68.4466 21.1C69.3666 19.66 69.8266 18 69.8266 16.12C69.8266 14.08 69.3466 12.36 68.3866 10.96C67.4666 9.52 66.1466 8.44 64.4266 7.72C62.7466 6.96 60.7266 6.58 58.3666 6.58C55.0466 6.58 52.4666 7.46 50.6266 9.22C48.7866 10.94 47.8666 13.24 47.8666 16.12C47.8666 18.04 48.3066 19.72 49.1866 21.16C50.0666 22.56 51.2866 23.66 52.8466 24.46C54.4466 25.26 56.2866 25.66 58.3666 25.66ZM69.8266 1.18H77.6266V31H70.3666C70.3666 31 70.3066 30.62 70.1866 29.86C70.1066 29.06 70.0266 28.06 69.9466 26.86C69.8666 25.66 69.8266 24.48 69.8266 23.32V1.18ZM84.6859 1.18H92.4859V31H84.6859V1.18ZM103.946 7.6C101.706 7.6 99.7659 8.04 98.1259 8.92C96.4859 9.76 95.1659 10.8 94.1659 12.04C93.1659 13.28 92.4659 14.48 92.0659 15.64L92.0059 12.34C92.0459 11.86 92.2059 11.16 92.4859 10.24C92.7659 9.28 93.1859 8.26 93.7459 7.18C94.3059 6.06 95.0459 5 95.9659 4C96.8859 2.96 98.0059 2.12 99.3259 1.48C100.646 0.839999 102.186 0.519999 103.946 0.519999V7.6ZM123.288 31.66C120.328 31.66 117.628 31.02 115.188 29.74C112.788 28.42 110.868 26.6 109.428 24.28C108.028 21.92 107.328 19.2 107.328 16.12C107.328 12.96 108.048 10.22 109.488 7.9C110.928 5.58 112.868 3.78 115.308 2.5C117.788 1.18 120.588 0.519999 123.708 0.519999C127.148 0.519999 129.908 1.22 131.988 2.62C134.108 3.98 135.648 5.84 136.608 8.2C137.568 10.56 138.048 13.2 138.048 16.12C138.048 17.88 137.768 19.68 137.208 21.52C136.648 23.32 135.788 25 134.628 26.56C133.468 28.08 131.948 29.32 130.068 30.28C128.188 31.2 125.928 31.66 123.288 31.66ZM125.808 25.66C128.168 25.66 130.208 25.26 131.928 24.46C133.648 23.66 134.968 22.54 135.888 21.1C136.808 19.66 137.268 18 137.268 16.12C137.268 14.08 136.788 12.36 135.828 10.96C134.908 9.52 133.588 8.44 131.868 7.72C130.188 6.96 128.168 6.58 125.808 6.58C122.488 6.58 119.908 7.46 118.068 9.22C116.228 10.94 115.308 13.24 115.308 16.12C115.308 18.04 115.748 19.72 116.628 21.16C117.508 22.56 118.728 23.66 120.288 24.46C121.888 25.26 123.728 25.66 125.808 25.66ZM137.268 1.18H145.068V31H137.808C137.808 31 137.748 30.62 137.628 29.86C137.548 29.06 137.468 28.06 137.388 26.86C137.308 25.66 137.268 24.48 137.268 23.32V1.18ZM166.647 31.66C163.687 31.66 160.987 31.02 158.547 29.74C156.147 28.42 154.227 26.6 152.787 24.28C151.387 21.92 150.687 19.2 150.687 16.12C150.687 12.96 151.407 10.22 152.847 7.9C154.287 5.58 156.227 3.78 158.667 2.5C161.147 1.18 163.947 0.519999 167.067 0.519999C170.507 0.519999 173.267 1.22 175.347 2.62C177.467 3.98 179.007 5.84 179.967 8.2C180.927 10.56 181.407 13.2 181.407 16.12C181.407 17.88 181.127 19.68 180.567 21.52C180.007 23.32 179.147 25 177.987 26.56C176.827 28.08 175.307 29.32 173.427 30.28C171.547 31.2 169.287 31.66 166.647 31.66ZM169.167 25.66C171.527 25.66 173.567 25.26 175.287 24.46C177.007 23.66 178.327 22.54 179.247 21.1C180.167 19.66 180.627 18 180.627 16.12C180.627 14.08 180.147 12.36 179.187 10.96C178.267 9.52 176.947 8.44 175.227 7.72C173.547 6.96 171.527 6.58 169.167 6.58C165.847 6.58 163.267 7.46 161.427 9.22C159.587 10.94 158.667 13.24 158.667 16.12C158.667 18.04 159.107 19.72 159.987 21.16C160.867 22.56 162.087 23.66 163.647 24.46C165.247 25.26 167.087 25.66 169.167 25.66ZM180.627 1.18H188.427V31H181.167C181.167 31 181.107 30.62 180.987 29.86C180.907 29.06 180.827 28.06 180.747 26.86C180.667 25.66 180.627 24.48 180.627 23.32V1.18ZM210.367 26.44C207.127 26.44 204.267 25.96 201.787 25C199.347 24 197.447 22.54 196.087 20.62C194.727 18.7 194.047 16.38 194.047 13.66C194.047 10.98 194.707 8.66 196.027 6.7C197.347 4.74 199.227 3.22 201.667 2.14C204.147 1.06 207.047 0.519999 210.367 0.519999C211.287 0.519999 212.167 0.579999 213.007 0.7C213.887 0.819999 214.747 0.979998 215.587 1.18L230.647 1.24V7.12C228.607 7.16 226.527 6.92 224.407 6.4C222.327 5.84 220.487 5.24 218.887 4.6L218.707 4.18C220.067 4.82 221.347 5.62 222.547 6.58C223.747 7.5 224.707 8.58 225.427 9.82C226.187 11.02 226.567 12.42 226.567 14.02C226.567 16.62 225.907 18.86 224.587 20.74C223.267 22.58 221.387 24 218.947 25C216.547 25.96 213.687 26.44 210.367 26.44ZM220.387 43.3V41.86C220.387 40.02 219.787 38.74 218.587 38.02C217.427 37.3 215.827 36.94 213.787 36.94H204.487C202.687 36.94 201.167 36.8 199.927 36.52C198.727 36.24 197.767 35.84 197.047 35.32C196.327 34.8 195.807 34.18 195.487 33.46C195.167 32.78 195.007 32.04 195.007 31.24C195.007 29.64 195.527 28.44 196.567 27.64C197.607 26.8 199.007 26.24 200.767 25.96C202.527 25.68 204.467 25.62 206.587 25.78L210.367 26.44C207.847 26.52 205.967 26.74 204.727 27.1C203.527 27.42 202.927 28.08 202.927 29.08C202.927 29.68 203.167 30.16 203.647 30.52C204.127 30.84 204.807 31 205.687 31H215.467C218.147 31 220.427 31.28 222.307 31.84C224.227 32.44 225.687 33.42 226.687 34.78C227.687 36.18 228.187 38.08 228.187 40.48V43.3H220.387ZM210.367 20.8C212.087 20.8 213.587 20.52 214.867 19.96C216.187 19.4 217.207 18.6 217.927 17.56C218.647 16.48 219.007 15.2 219.007 13.72C219.007 12.2 218.647 10.9 217.927 9.82C217.207 8.74 216.207 7.92 214.927 7.36C213.647 6.76 212.127 6.46 210.367 6.46C208.647 6.46 207.127 6.76 205.807 7.36C204.487 7.92 203.467 8.74 202.747 9.82C202.027 10.9 201.667 12.2 201.667 13.72C201.667 15.2 202.027 16.48 202.747 17.56C203.467 18.6 204.467 19.4 205.747 19.96C207.067 20.52 208.607 20.8 210.367 20.8ZM262.393 21.1H269.953C269.633 23.14 268.773 24.96 267.373 26.56C266.013 28.16 264.153 29.42 261.793 30.34C259.433 31.26 256.553 31.72 253.153 31.72C249.353 31.72 245.993 31.12 243.073 29.92C240.153 28.68 237.873 26.9 236.233 24.58C234.593 22.26 233.773 19.46 233.773 16.18C233.773 12.9 234.573 10.1 236.173 7.78C237.773 5.42 239.993 3.62 242.833 2.38C245.713 1.14 249.073 0.519999 252.913 0.519999C256.833 0.519999 260.093 1.14 262.693 2.38C265.293 3.62 267.213 5.5 268.453 8.02C269.733 10.5 270.273 13.68 270.073 17.56H241.633C241.833 19.08 242.393 20.46 243.313 21.7C244.273 22.94 245.553 23.92 247.153 24.64C248.793 25.36 250.733 25.72 252.973 25.72C255.453 25.72 257.513 25.3 259.153 24.46C260.833 23.58 261.913 22.46 262.393 21.1ZM252.553 6.46C249.673 6.46 247.333 7.1 245.533 8.38C243.733 9.62 242.573 11.16 242.053 13H262.333C262.133 11 261.173 9.42 259.453 8.26C257.773 7.06 255.473 6.46 252.553 6.46Z" fill="white"/>
</svg>
