<svg width="197" height="149" viewBox="0 0 197 149" fill="none" xmlns="http://www.w3.org/2000/svg">
<path fill-rule="evenodd" clip-rule="evenodd" d="M157.709 -168.882C147.64 -153.797 135.501 -133.494 134.476 -113.034C134.155 -106.631 134.922 -100.212 137.181 -93.9318C137.056 -89.1221 137.561 -84.3089 138.867 -79.5587C138.831 -79.078 138.801 -78.5972 138.777 -78.1162C138.594 -74.4727 138.764 -70.8237 139.36 -67.198C139.103 -65.3875 138.925 -63.5723 138.834 -61.7558C138.806 -61.1941 138.786 -60.6322 138.775 -60.0704C129.696 -45.8023 120.299 -28.0295 119.403 -10.1355C118.889 0.104386 121.159 10.3879 127.864 20.0733C134.566 29.7563 145.687 38.8217 162.841 46.6501C202.797 64.8848 235.504 59.6382 260.654 55.6037C262.989 55.2291 265.259 54.8649 267.464 54.531C280.46 52.5626 291.105 51.6599 299.475 55.7429C307.821 59.8148 313.991 68.8967 317.872 87.1382L318.452 87.0359C314.561 68.7464 308.339 59.4481 299.746 55.2556C291.175 51.0744 280.332 52.0233 267.364 53.9874C265.16 54.3212 262.893 54.6848 260.562 55.0585L260.556 55.0595L260.552 55.0601C235.408 59.0923 202.875 64.3093 163.097 46.156C146.014 38.36 134.989 29.3549 128.36 19.778C121.732 10.2034 119.485 0.0375555 119.993 -10.1048C120.866 -27.524 129.865 -44.8621 138.764 -58.9652C138.764 -58.6362 138.768 -58.3073 138.774 -57.9784C138.611 -57.2844 138.459 -56.5891 138.317 -55.8927C132.583 -44.8612 128.004 -32.6947 127.392 -20.4717C126.879 -10.2319 129.148 0.0516542 135.853 9.73705C142.555 19.4201 153.676 28.4854 170.83 36.3139C210.787 54.5486 243.493 49.3019 268.643 45.2675C270.978 44.8929 273.248 44.5287 275.453 44.1947C288.449 42.2263 299.094 41.3236 307.464 45.4067C315.81 49.4785 321.981 58.5605 325.861 76.8019L326.441 76.6997C322.551 58.4101 316.328 49.1119 307.735 44.9194C299.164 40.7381 288.321 41.687 275.353 43.6512C273.146 43.9854 270.876 44.3496 268.541 44.7239C243.397 48.756 210.864 53.973 171.086 35.8198C154.003 28.0238 142.978 19.0187 136.349 9.44173C129.722 -0.132819 127.474 -10.2987 127.983 -20.4411C128.557 -31.9049 132.651 -43.3337 137.92 -53.8284C135.405 -46.9259 133.686 -39.7875 133.328 -32.6297C132.815 -22.3898 135.085 -12.1063 141.789 -2.42093C148.491 7.26208 159.612 16.3275 176.766 24.1559C216.723 42.3906 249.429 37.1439 274.579 33.1095L274.584 33.1088L274.595 33.1068L274.603 33.1056L274.607 33.1049L274.622 33.1026C276.942 32.7305 279.198 32.3687 281.389 32.0367C294.385 30.0683 305.03 29.1657 313.4 33.2487C321.747 37.3206 327.917 46.4025 331.797 64.6439L332.377 64.5417C328.487 46.2521 322.265 36.9539 313.671 32.7614C305.1 28.5801 294.257 29.529 281.289 31.4932C279.082 31.8275 276.812 32.1916 274.477 32.5659L274.477 32.5659C249.333 36.5981 216.8 41.815 177.023 23.6618C159.94 15.8658 148.914 6.86068 142.285 -2.71625C135.658 -12.2908 133.41 -22.4567 133.919 -32.599C134.224 -38.7005 135.527 -44.792 137.473 -50.738C137.3 -49.3224 137.175 -47.9044 137.104 -46.4856C136.591 -36.2458 138.861 -25.9622 145.565 -16.2768C152.268 -6.59383 163.388 2.47155 180.542 10.3C220.499 28.5347 253.205 23.288 278.355 19.2536L278.358 19.2532C280.692 18.8787 282.962 18.5147 285.166 18.1808C298.161 16.2124 308.807 15.3097 317.176 19.3928C325.523 23.4646 331.693 32.5466 335.573 50.788L336.154 50.6858C332.263 32.3962 326.041 23.098 317.447 18.9055C308.876 14.7242 298.033 15.6731 285.065 17.6373C282.859 17.9715 280.588 18.3357 278.254 18.71C253.109 22.7421 220.577 27.9591 180.799 9.80592C163.716 2.00987 152.691 -6.99524 146.061 -16.5722C139.434 -26.1467 137.187 -36.3126 137.695 -46.455C137.817 -48.888 138.097 -51.3194 138.514 -53.7407C138.65 -54.1124 138.788 -54.4835 138.928 -54.8538C139.565 -46.9247 142.097 -39.0561 147.295 -31.547C153.997 -21.864 165.118 -12.7986 182.272 -4.97018C222.229 13.2645 254.935 8.01787 280.085 3.98344L280.088 3.98301C282.422 3.60853 284.691 3.24451 286.895 2.91069C299.891 0.942277 310.537 0.0395843 318.906 4.12263C327.253 8.1945 333.423 17.2764 337.303 35.5179L337.883 35.4156C333.993 17.1261 327.771 7.82781 319.177 3.63537C310.606 -0.545916 299.763 0.402982 286.795 2.36713C284.594 2.70049 282.33 3.06359 280.002 3.43684L279.994 3.43817L279.99 3.43871L279.983 3.43984C254.839 7.47199 222.307 12.689 182.529 -5.46424C165.446 -13.2603 154.42 -22.2654 147.791 -31.8423C142.377 -39.6643 139.886 -47.8809 139.433 -56.157C139.763 -56.9942 140.105 -57.8276 140.456 -58.6568C140.69 -59.0841 140.926 -59.5096 141.162 -59.933C142.533 -55.8548 144.521 -51.832 147.238 -47.9075C153.94 -38.2245 165.061 -29.1591 182.215 -21.3307C222.172 -3.09596 254.878 -8.34262 280.028 -12.377L280.035 -12.3782C282.368 -12.7524 284.636 -13.1162 286.838 -13.4498C299.834 -15.4182 310.479 -16.3209 318.849 -12.2379C327.196 -8.16598 333.366 0.915917 337.246 19.1574L337.826 19.0551C333.936 0.765592 327.714 -8.53269 319.12 -12.7251C310.549 -16.9064 299.706 -15.9575 286.738 -13.9934C284.533 -13.6594 282.264 -13.2956 279.932 -12.9215L279.928 -12.9209L279.926 -12.9206C254.782 -8.88849 222.249 -3.67152 182.472 -21.8247C165.389 -29.6208 154.363 -38.6259 147.734 -48.2028C144.93 -52.2533 142.911 -56.4097 141.552 -60.6254C142.642 -62.5556 143.757 -64.444 144.88 -66.2842C145.144 -65.8797 145.415 -65.4761 145.693 -65.0736C152.396 -55.3906 163.517 -46.3252 180.671 -38.4968C220.627 -20.2621 253.334 -25.5088 278.483 -29.5432L278.485 -29.5435C280.82 -29.918 283.09 -30.2821 285.294 -30.6159C298.289 -32.5843 308.935 -33.487 317.304 -29.404C325.651 -25.3321 331.821 -16.2502 335.702 1.99125L336.282 1.88901C332.391 -16.4005 326.169 -25.6988 317.575 -29.8913C309.004 -34.0725 298.161 -33.1236 285.194 -31.1595C282.989 -30.8255 280.72 -30.4617 278.388 -30.0877L278.383 -30.087L278.382 -30.0868C253.238 -26.0546 220.705 -20.8377 180.927 -38.9909C163.844 -46.7869 152.819 -55.792 146.19 -65.3689C145.853 -65.8546 145.528 -66.3418 145.215 -66.8305C146.836 -69.4713 148.471 -72.0105 150.067 -74.4286C156.729 -67.8984 165.823 -61.7659 177.914 -56.248C217.871 -38.0133 250.577 -43.2599 275.727 -47.2944C278.062 -47.669 280.332 -48.0332 282.537 -48.3671C295.533 -50.3355 306.178 -51.2382 314.548 -47.1552C322.895 -43.0833 329.065 -34.0014 332.945 -15.7599L333.525 -15.8622C329.635 -34.1517 323.413 -43.45 314.819 -47.6424C306.248 -51.8237 295.405 -50.8748 282.437 -48.9106C280.23 -48.5764 277.96 -48.2123 275.625 -47.8379C250.481 -43.8058 217.948 -38.5888 178.171 -56.742C166.064 -62.267 157 -68.3991 150.387 -74.9117C150.635 -75.2864 150.882 -75.6581 151.128 -76.0268L150.625 -76.3205C150.406 -75.9927 150.187 -75.6625 149.966 -75.3299C149.753 -75.5442 149.542 -75.7588 149.333 -75.9739C151.899 -80.3118 154.544 -84.4081 157.065 -88.1847L156.561 -88.4784C154.072 -84.7493 151.457 -80.7014 148.914 -76.4111C148.244 -77.1162 147.601 -77.8256 146.986 -78.5388C151.184 -87.1253 156.221 -95.1199 160.841 -102.041L160.338 -102.334C155.764 -95.4826 150.764 -87.5547 146.572 -79.0245C145.607 -80.1681 144.711 -81.3215 143.881 -82.4836C148.521 -95.3475 155.972 -107.425 162.571 -117.311L162.067 -117.605C155.54 -107.826 148.144 -95.855 143.468 -83.0699L143.433 -83.1201C142.391 -84.626 141.457 -86.1464 140.625 -87.6792C144.145 -104.641 154.033 -120.966 162.514 -133.671L162.01 -133.965C153.649 -121.439 143.861 -105.316 140.194 -88.4917C139.249 -90.316 138.446 -92.1569 137.775 -94.0105C137.786 -94.4243 137.802 -94.838 137.823 -95.2517C138.84 -115.555 150.898 -135.749 160.969 -150.837L160.466 -151.131C150.441 -136.113 138.365 -115.924 137.247 -95.5552C135.396 -101.3 134.774 -107.156 135.067 -113.003C136.084 -133.306 148.141 -153.5 158.213 -168.589L157.709 -168.882ZM140.235 -61.2693C139.92 -60.1567 139.63 -59.04 139.366 -57.92L139.367 -57.8777C139.55 -58.2166 139.733 -58.5543 139.918 -58.8909C140.214 -59.5888 140.517 -60.2837 140.826 -60.9753C140.741 -61.2503 140.658 -61.5256 140.579 -61.8011C140.464 -61.6244 140.349 -61.4471 140.235 -61.2693ZM141.004 -62.4552C141.065 -62.233 141.129 -62.0109 141.194 -61.7891C141.715 -62.9329 142.254 -64.0674 142.807 -65.1915C142.211 -64.2965 141.609 -63.3841 141.004 -62.4552ZM143.073 -65.7294C143.389 -66.366 143.71 -66.9991 144.035 -67.6286C143.669 -68.2312 143.319 -68.8357 142.985 -69.4423C142.19 -67.3924 141.462 -65.3201 140.816 -63.2312C141.428 -64.1667 142.036 -65.0847 142.636 -65.9842L143.073 -65.7294ZM139.685 -61.4906C139.848 -62.0664 140.018 -62.6411 140.194 -63.2145C140.018 -63.9054 139.858 -64.5976 139.714 -65.2908C139.582 -64.1033 139.484 -62.9144 139.425 -61.7251C139.413 -61.4967 139.403 -61.2683 139.395 -61.0399C139.491 -61.1905 139.588 -61.3408 139.685 -61.4906ZM144.53 -66.8296C144.053 -66.0509 143.578 -65.2633 143.105 -64.4673C143.526 -65.3331 143.956 -66.193 144.394 -67.0464C144.439 -66.9741 144.484 -66.9018 144.53 -66.8296ZM149.646 -74.8458C148.076 -72.4706 146.467 -69.9755 144.867 -67.3789C144.812 -67.4677 144.757 -67.5565 144.702 -67.6454C146.09 -70.3223 147.547 -72.934 149.033 -75.4653C149.235 -75.2584 149.439 -75.0519 149.646 -74.8458ZM148.612 -75.9012C147.954 -76.5898 147.321 -77.2827 146.714 -77.9794C145.476 -75.4164 144.314 -72.8018 143.262 -70.1484C143.606 -69.5072 143.968 -68.8682 144.347 -68.2314C145.717 -70.8577 147.151 -73.4191 148.612 -75.9012ZM142.619 -70.1203C141.863 -68.199 141.164 -66.257 140.535 -64.2993C140.311 -65.2637 140.119 -66.2305 139.958 -67.1991C140.247 -69.2211 140.635 -71.2376 141.109 -73.2435C141.568 -72.1975 142.071 -71.1562 142.619 -70.1203ZM146.297 -78.4632C145.085 -75.9661 143.943 -73.4186 142.903 -70.8324C142.329 -71.9455 141.809 -73.0646 141.339 -74.1891C141.98 -76.7566 142.758 -79.3055 143.646 -81.8252C144.467 -80.6954 145.35 -79.5744 146.297 -78.4632ZM143.228 -82.4077C143.13 -82.5466 143.033 -82.6856 142.937 -82.8248C142.027 -84.1392 141.199 -85.4647 140.448 -86.7995C139.984 -84.4099 139.649 -82.0087 139.464 -79.6042C139.881 -78.099 140.38 -76.6004 140.965 -75.1105C141.605 -77.5647 142.368 -80.0002 143.228 -82.4077ZM140.721 -74.1524C140.207 -75.3943 139.754 -76.6424 139.358 -77.8954C139.222 -74.9852 139.314 -72.0734 139.672 -69.1745C139.961 -70.8399 140.313 -72.5001 140.721 -74.1524ZM140.006 -87.6033C139.578 -85.515 139.247 -83.4167 139.026 -81.314C138.158 -84.9918 137.761 -88.7045 137.754 -92.4217C138.401 -90.8045 139.149 -89.1974 140.006 -87.6033ZM109.684 -1.51539C110.709 -21.9763 122.848 -42.2787 132.917 -57.3641L133.42 -57.0704C123.349 -41.9817 111.292 -21.7882 110.274 -1.48474C109.766 8.65763 112.013 18.8235 118.641 28.398C125.27 37.975 136.295 46.9801 153.378 54.7761C193.156 72.9293 225.689 67.7124 250.833 63.6802C253.168 63.3059 255.438 62.9418 257.645 62.6075C270.613 60.6433 281.456 59.6944 290.027 63.8757C298.62 68.0682 304.843 77.3664 308.733 95.656L308.153 95.7582C304.273 77.5168 298.102 68.4349 289.756 64.363C281.386 60.2799 270.741 61.1826 257.745 63.151C255.54 63.485 253.27 63.8492 250.935 64.2238C225.785 68.2582 193.079 73.5049 153.122 55.2702C135.968 47.4418 124.847 38.3764 118.145 28.6934C111.44 19.008 109.17 8.72446 109.684 -1.51539ZM121.898 -50.1606C111.828 -35.0751 99.6893 -14.7728 98.6641 5.68816C98.151 15.928 100.421 26.2115 107.125 35.8969C113.828 45.5799 124.948 54.6453 142.102 62.4737C182.059 80.7084 214.765 75.4618 239.915 71.4274C242.251 71.0527 244.521 70.6886 246.726 70.3546C259.721 68.3862 270.367 67.4835 278.736 71.5665C287.083 75.6384 293.253 84.7203 297.133 102.962L297.714 102.86C293.823 84.57 287.601 75.2717 279.007 71.0793C270.436 66.898 259.593 67.8469 246.625 69.811C244.419 70.1452 242.149 70.5093 239.815 70.8835L239.814 70.8838C214.669 74.9159 182.137 80.1329 142.359 61.9797C125.276 54.1836 114.251 45.1785 107.621 35.6016C100.994 26.027 98.7467 15.8612 99.2549 5.71881C100.272 -14.5847 112.329 -34.7781 122.401 -49.8669L121.898 -50.1606ZM86.7621 11.8632C87.7874 -8.59774 99.9265 -28.9001 109.996 -43.9856L110.499 -43.6919C100.427 -28.6031 88.3704 -8.40968 87.353 11.8938C86.8448 22.0362 89.092 32.2021 95.7195 41.7766C102.349 51.3535 113.374 60.3587 130.457 68.1547C170.235 86.3079 202.767 81.0909 227.912 77.0588L227.916 77.0581L227.922 77.0572C230.253 76.6834 232.52 76.3198 234.724 75.9861C247.691 74.0219 258.534 73.073 267.105 77.2543C275.699 81.4467 281.921 90.745 285.812 109.035L285.231 109.137C281.351 90.8953 275.181 81.8134 266.834 77.7416C258.465 73.6585 247.819 74.5612 234.824 76.5296C232.632 76.8615 230.376 77.2233 228.056 77.5955L228.042 77.5978L228.037 77.5985L228.03 77.5997L228.018 77.6016L228.013 77.6024C202.864 81.6368 170.157 86.8835 130.2 68.6487C113.047 60.8203 101.926 51.755 95.2231 42.0719C88.5189 32.3865 86.2491 22.103 86.7621 11.8632ZM97.5681 -38.4547C87.4989 -23.3692 75.3598 -3.0669 74.3346 17.394C73.8215 27.6339 76.0914 37.9174 82.7955 47.6028C89.4981 57.2858 100.619 66.3512 117.773 74.1796C157.729 92.4143 190.436 87.1676 215.586 83.1332C217.921 82.7586 220.191 82.3944 222.396 82.0605C235.392 80.092 246.037 79.1894 254.407 83.2724C262.753 87.3443 268.924 96.4262 272.804 114.668L273.384 114.565C269.493 96.2758 263.271 86.9776 254.678 82.7851C246.107 78.6038 235.264 79.5528 222.296 81.5169C220.089 81.8512 217.818 82.2153 215.484 82.5896C190.34 86.6218 157.807 91.8387 118.029 73.6855C100.946 65.8895 89.921 56.8844 83.2919 47.3075C76.6644 37.7329 74.4172 27.567 74.9254 17.4247C75.9428 -2.87884 87.9999 -23.0723 98.0713 -38.161L97.5681 -38.4547ZM61.6552 22.6088C62.6804 2.14787 74.8195 -18.1545 84.8888 -33.24L85.392 -32.9463C75.3205 -17.8575 63.2634 2.33594 62.246 22.6394C61.7378 32.7818 63.9851 42.9477 70.6125 52.5222C77.2416 62.0992 88.267 71.1043 105.35 78.9003C145.128 97.0535 177.661 91.8365 202.805 87.8044L202.809 87.8037L202.815 87.8028C205.146 87.429 207.413 87.0654 209.617 86.7317C222.584 84.7675 233.427 83.8186 241.998 87.9999C250.592 92.1923 256.814 101.491 260.705 119.78L260.124 119.882C256.244 101.641 250.074 92.559 241.727 88.4872C233.358 84.4041 222.712 85.3068 209.717 87.2752C207.514 87.6088 205.246 87.9726 202.914 88.3468L202.906 88.348C177.757 92.3824 145.05 97.6291 105.093 79.3943C87.9396 71.5659 76.8187 62.5006 70.1162 52.8175C63.412 43.1322 61.1421 32.8486 61.6552 22.6088ZM72.1694 -28.0788C62.1001 -12.9933 49.961 7.30906 48.9358 27.77C48.4227 38.0098 50.6926 48.2933 57.3968 57.9787C64.0993 67.6617 75.2202 76.7271 92.3741 84.5555C132.331 102.79 165.037 97.5436 190.187 93.5092L190.191 93.5085C192.525 93.1341 194.794 92.7702 196.997 92.4364C209.993 90.468 220.638 89.5653 229.008 93.6484C237.355 97.7202 243.525 106.802 247.405 125.044L247.985 124.941C244.095 106.652 237.873 97.3535 229.279 93.1611C220.708 88.9798 209.865 89.9287 196.897 91.8929C194.693 92.2267 192.425 92.5903 190.094 92.9642L190.089 92.9649L190.085 92.9656C164.941 96.9977 132.409 102.215 92.6305 84.0615C75.5476 76.2655 64.5222 67.2603 57.8931 57.6834C51.2657 48.1089 49.0184 37.943 49.5266 27.8006C50.544 7.49712 62.6011 -12.6963 72.6726 -27.7851L72.1694 -28.0788ZM36.3279 33.0761C37.3532 12.6152 49.4922 -7.68715 59.5615 -22.7726L60.0647 -22.4789C49.9932 -7.39015 37.9361 12.8033 36.9188 33.1068C36.4106 43.2491 38.6578 53.415 45.2853 62.9896C51.9144 72.5665 62.9397 81.5716 80.0227 89.3676C119.801 107.521 152.333 102.304 177.478 98.2717L177.483 98.2708C179.815 97.8968 182.084 97.533 184.289 97.199C197.257 95.2349 208.1 94.286 216.671 98.4672C225.265 102.66 231.487 111.958 235.377 130.248L234.797 130.35C230.917 112.108 224.747 103.026 216.4 98.9545C208.031 94.8715 197.385 95.7742 184.389 97.7426C182.186 98.0763 179.917 98.4403 177.583 98.8147L177.582 98.8148L177.579 98.8153C152.429 102.85 119.723 108.096 79.7662 89.8617C62.6123 82.0333 51.4915 72.9679 44.7889 63.2849C38.0847 53.5995 35.8148 43.316 36.3279 33.0761ZM47.1851 -17.1777C37.1159 -2.09219 24.9768 18.2102 23.9515 38.6711C23.4384 48.9109 25.7083 59.1945 32.4125 68.8798C39.1151 78.5629 50.2359 87.6282 67.3899 95.4567C107.346 113.691 140.053 108.445 165.203 104.41C167.538 104.036 169.808 103.671 172.013 103.338C185.009 101.369 195.654 100.466 204.024 104.549C212.37 108.621 218.541 117.703 222.421 135.945L223.001 135.842C219.11 117.553 212.888 108.255 204.295 104.062C195.724 99.8809 184.881 100.83 171.913 102.794C169.706 103.128 167.435 103.492 165.101 103.867C139.957 107.899 107.424 113.116 67.6463 94.9626C50.5633 87.1666 39.538 78.1614 32.9089 68.5845C26.2814 59.01 24.0342 48.8441 24.5424 38.7017C25.5597 18.3982 37.6169 -1.79519 47.6883 -16.884L47.1851 -17.1777ZM11.8919 44.6541C12.9172 24.1932 25.0562 3.89082 35.1255 -11.1947L35.6287 -10.901C25.5572 4.18781 13.5001 24.3812 12.4828 44.6847C11.9746 54.8271 14.2218 64.993 20.8493 74.5675C27.4784 84.1445 38.5037 93.1496 55.5867 100.946C95.3647 119.099 127.897 113.882 153.042 109.85L153.047 109.849C155.379 109.475 157.648 109.111 159.853 108.777C172.821 106.813 183.664 105.864 192.235 110.045C200.829 114.238 207.051 123.536 210.941 141.825L210.361 141.928C206.481 123.686 200.311 114.604 191.964 110.532C183.595 106.449 172.949 107.352 159.953 109.321C157.755 109.653 155.492 110.016 153.164 110.39L153.149 110.392L153.143 110.393C127.993 114.428 95.2869 119.674 55.3302 101.44C38.1763 93.6112 27.0555 84.5459 20.3529 74.8628C13.6487 65.1775 11.3788 54.8939 11.8919 44.6541ZM23.4424 -4.75823C13.3732 10.3273 1.23409 30.6296 0.208854 51.0905C-0.304235 61.3304 1.96565 71.6139 8.66985 81.2993C15.3724 90.9823 26.4933 100.048 43.6472 107.876C83.6038 126.111 116.31 120.864 141.46 116.83L141.461 116.829C143.796 116.455 146.066 116.091 148.27 115.757C161.266 113.789 171.912 112.886 180.281 116.969C188.628 121.041 194.798 130.123 198.678 148.364L199.258 148.262C195.368 129.972 189.146 120.674 180.552 116.482C171.981 112.3 161.138 113.249 148.17 115.213C145.964 115.548 143.693 115.912 141.359 116.286L141.358 116.286C116.214 120.318 83.6816 125.535 43.9036 107.382C26.8206 99.586 15.7953 90.5809 9.1662 81.004C2.53873 71.4294 0.291508 61.2636 0.799708 51.1212C1.81706 30.8177 13.8742 10.6243 23.9456 -4.46452L23.4424 -4.75823Z" fill="url(#paint0_radial_5_8)" fill-opacity="0.58"/>
<defs>
<radialGradient id="paint0_radial_5_8" cx="0" cy="0" r="1" gradientUnits="userSpaceOnUse" gradientTransform="translate(146.375 31.4073) rotate(33.312) scale(155.973 157.648)">
<stop stop-color="white"/>
<stop offset="1" stop-color="#1E1E1E" stop-opacity="0"/>
<stop offset="1" stop-color="#0E0E35" stop-opacity="0"/>
<stop offset="1" stop-color="white" stop-opacity="0"/>
</radialGradient>
</defs>
</svg>
