<svg width="24" height="24" viewBox="0 0 24 24" fill="none" xmlns="http://www.w3.org/2000/svg">
<path d="M9.03004 14C8.64004 13.43 8.42004 12.74 8.42004 12C8.42004 10.02 10.02 8.41998 12 8.41998C13.98 8.41998 15.58 10.02 15.58 12C15.58 13.98 13.98 15.58 12 15.58" stroke="#292D32" stroke-width="1.5" stroke-linecap="round" stroke-linejoin="round"/>
<path d="M17.56 5.57998C15.87 4.37998 13.97 3.72998 12 3.72998C8.46997 3.72998 5.17997 5.80998 2.88997 9.40998C1.98997 10.82 1.98997 13.19 2.88997 14.6C5.17997 18.2 8.46997 20.28 12 20.28C15.53 20.28 18.82 18.2 21.11 14.6C22.01 13.19 22.01 10.82 21.11 9.40998" stroke="#292D32" stroke-width="1.5" stroke-linecap="round" stroke-linejoin="round"/>
</svg>
