<svg width="24" height="24" viewBox="0 0 24 24" fill="none" xmlns="http://www.w3.org/2000/svg">
<path d="M3.26995 7.51001C2.58995 8.87001 2.19995 10.39 2.19995 12C2.19995 13.61 2.58995 15.13 3.26995 16.49L3.27995 16.48V16.49C4.91995 19.76 8.28995 22 12.2 22C14.9 22 17.17 21.11 18.82 19.58C20.71 17.84 21.8 15.27 21.8 12.22C21.8 11.4 21.73 10.8 21.59 10.18H12.2V13.89H17.71C17.6 14.81 17 16.2 15.67 17.13C14.83 17.72 13.69 18.13 12.2 18.13C9.55995 18.13 7.30996 16.39 6.50996 13.97C6.29996 13.35 6.17995 12.68 6.17995 11.99C6.17995 11.3 6.29995 10.63 6.49995 10.01C6.55995 9.83001 6.62995 9.64 6.70995 9.47C7.65995 7.34 9.75995 5.85999 12.2 5.85999C14.08 5.85999 15.34 6.67001 16.07 7.35001L18.89 4.59C17.16 2.98 14.9 1.98999 12.2 1.98999C10.05 1.98999 8.05995 2.67001 6.42995 3.82001" stroke="black" stroke-width="1.5" stroke-miterlimit="10" stroke-linecap="round" stroke-linejoin="round"/>
</svg>
