<svg width="24" height="24" viewBox="0 0 24 24" fill="none" xmlns="http://www.w3.org/2000/svg">
<path d="M12.33 12.84C11.37 14.57 9.58002 14.72 8.34002 13.17L8.12002 12.89C6.83002 11.27 5.01002 11.47 4.08002 13.32L2.36002 16.77C1.16002 19.17 2.91002 22 5.59002 22H18.35C20.94 22 22.69 19.35 21.67 16.96L18.54 9.65001C17.48 7.17001 15.53 7.07001 14.22 9.43001" stroke="#292D32" stroke-width="1.5" stroke-linecap="round" stroke-linejoin="round"/>
<path d="M9.96997 5C9.96997 6.66 8.62997 8 6.96997 8C5.30997 8 3.96997 6.66 3.96997 5C3.96997 3.34 5.30997 2 6.96997 2C7.32997 2 7.66997 2.06 7.97997 2.18" stroke="#292D32" stroke-width="1.5" stroke-linecap="round" stroke-linejoin="round"/>
</svg>
