<svg width="24" height="24" viewBox="0 0 24 24" fill="none" xmlns="http://www.w3.org/2000/svg">
<path d="M4.84 19.48C3.08 17.68 2 15.21 2 12.49C2 8.80001 4 5.58001 6.97 3.84001C7.28 3.66001 7.6 3.49001 7.94 3.35001" stroke="#292D32" stroke-width="1.5" stroke-miterlimit="10" stroke-linecap="round" stroke-linejoin="round"/>
<path d="M19.14 19.5C20.91 17.7 22 15.22 22 12.5C22 6.98 17.52 2.5 12 2.5" stroke="#292D32" stroke-width="1.5" stroke-miterlimit="10" stroke-linecap="round" stroke-linejoin="round"/>
<path d="M8.62 18.12C8.62 19.98 10.13 21.5 12 21.5C13.87 21.5 15.38 19.99 15.38 18.12C15.38 16.25 13.87 14.74 12 14.74C11.07 14.74 10.22 15.12 9.61 15.73C9 16.35 8.62 17.19 8.62 18.12Z" stroke="#292D32" stroke-width="1.5" stroke-miterlimit="10" stroke-linecap="round" stroke-linejoin="round"/>
<path d="M15.25 12H16C16.82 12 17.5 11.33 17.5 10.5C17.5 9.68 16.82 9 16 9C15.18 9 14.5 9.67 14.5 10.5V11.25C14.5 11.66 14.84 12 15.25 12Z" stroke="#292D32" stroke-width="1.5" stroke-miterlimit="10" stroke-linecap="round" stroke-linejoin="round"/>
</svg>
